<?xml version="1.0" encoding="utf-8"?>
<!-- Generator: Adobe Illustrator 21.0.0, SVG Export Plug-In . SVG Version: 6.00 Build 0)  -->
<svg version="1.1" id="图层_1" xmlns="http://www.w3.org/2000/svg" xmlns:xlink="http://www.w3.org/1999/xlink" x="0px" y="0px"
	 viewBox="0 0 200 200" style="enable-background:new 0 0 200 200;" xml:space="preserve">
<style type="text/css">
	.st0{fill:#FFFFFF;}
</style>
<path class="st0" d="M181.8,179.3V70.2h9.1c5,0,9.1-4,9.1-9.1V15.7c0-5-4-9.1-9.1-9.1h-36.4v181.8h18.2
	C177.8,188.4,181.8,184.3,181.8,179.3z"/>
<path class="st0" d="M137,200c5.1,0,9.2-4,9.2-9.1V9.1c0-5-4.1-9.1-9.2-9.1H19c-5.1,0-9.2,4-9.2,9.1v181.8c0,5,4.1,9.1,9.2,9.1
	L137,200L137,200z M20,106.2v-56h58.2h58.2v8v8H94.8H53.2v16v16h33.2h33.2v8v8H86.4H53.2v16v16h41.5h41.5v8v8H78.1H20V106.2z
	 M20,28.6v-18h5h5v7.7V26h2.5H35v-2.6v-2.6h2.5H40v2.6V26h2.5H45v-7.7v-7.7h5h5v17.9v17.9h-5h-5v-2.6v-2.6h-2.5H40v-2.6V36h-2.5H35
	v2.6v2.6h-2.5H30v2.6v2.6h-5h-5V28.6z M60.3,15.8v-5.1h5h5v2.6v2.6h2.5h2.5v2.6v2.6h2.5h2.5v-2.6v-2.6h2.5h2.5v-2.6v-2.6h5h5v5.1
	v5.1H93h-2.5v2.6V26H88h-2.5v2.6v2.6H88h2.5v2.6v2.6H93h2.5v5.1v5.1h-5h-5V44v-2.6H83h-2.5v-2.6v-2.6H78h-2.5v2.6v2.6H73h-2.5V44
	v2.6h-5h-5v-5.1v-5.1H63h2.5v-2.6v-2.6H68h2.5v-2.6V26H68h-2.5v-2.6v-2.6H63h-2.5v-5H60.3z M101,28.6v-18h5h5v2.6v2.6h2.5h2.5v2.6
	V21h2.5h2.5v-2.6v-2.6h2.5h2.5v-2.6v-2.6h5h5v17.9v17.9h-5h-5v-7.7V31h-2.5H121v2.6v2.6h-2.5H116v-2.6V31h-2.5H111v7.7v7.7h-5h-5
	V28.6z M19.6,177.3V165h11.3h11.3v1.8v1.8h1.9H46v3.5v3.5h-1.9h-1.9v1.8v1.8h1.9H46v3.5v3.5h-1.9h-1.9v1.8v1.8H30.9H19.6V177.3z
	 M38.5,172v-3.5h-5.6h-5.6v3.5v3.5h5.6h5.6V172z M38.5,182.6v-3.5h-5.6h-5.6v3.5v3.5h5.6h5.6V182.6z M53.5,166.7V165h9.4h9.4v1.8
	v1.8h1.9h1.9v8.8v8.8h-1.9h-1.9v1.8v1.8h-9.4h-9.4V188v-1.8h-1.9h-1.9v-8.8v-8.8h1.9h1.9V166.7z M68.6,177.3v-8.8H63h-5.6v8.8v8.8
	H63h5.6V177.3z M83.6,166.7V165H93h9.4v1.8v1.8h1.9h1.9v8.8v8.8h-1.9h-1.9v1.8v1.8H93h-9.4V188v-1.8h-1.9h-1.9v-8.8v-8.8h1.9h1.9
	V166.7z M98.7,177.3v-8.8H93h-5.6v8.8v8.8H93h5.6L98.7,177.3L98.7,177.3z M110,177.3V165h3.8h3.8v5.3v5.3h1.9h1.9v-1.8V172h1.9h1.9
	v-1.8v-1.8h1.9h1.9v-1.8V165h3.8h3.8v1.8v1.8h-1.9h-1.9v1.8v1.8h-1.9H129v1.8v1.8h-1.9H125v1.8v1.8h1.9h1.9v1.8v1.8h1.9h1.9v1.8v1.8
	h1.9h1.9v1.8v1.8h-5.6H125v-1.8v-1.8h-1.9h-1.9v-1.8V183h-1.9h-1.9v3.5v3.5h-3.8H110V177.3z"/>
</svg>
